<?xml version="1.0" encoding="utf-8"?>
<!-- Generator: Adobe Illustrator 16.0.0, SVG Export Plug-In . SVG Version: 6.00 Build 0)  -->
<!DOCTYPE svg PUBLIC "-//W3C//DTD SVG 1.1//EN" "http://www.w3.org/Graphics/SVG/1.1/DTD/svg11.dtd">
<svg version="1.1" id="Layer_1" xmlns="http://www.w3.org/2000/svg" xmlns:xlink="http://www.w3.org/1999/xlink" x="0px" y="0px"
	 width="142px" height="43px" viewBox="58 17.5 142 43" enable-background="new 58 17.5 142 43" xml:space="preserve">
<g>
	<path fill="#FFFFFF" d="M76.489,36c0,5.115-4.12,9.234-9.235,9.234S58.02,41.115,58.02,36c0-5.114,4.12-9.234,9.234-9.234
		C72.297,26.695,76.489,30.887,76.489,36"/>
	<path fill="#398640" d="M59.511,39.481c0.285,0,0.568,0,0.853,0c1.278,0,2.628-0.142,3.836-0.425
		c1.634-0.356,2.842-0.853,3.765-1.279c0.995-0.426,1.705-0.71,2.628-0.71c0.426,0,0.782,0.071,1.208,0.213
		c0.142,0.071,0.142,0.142,0.142,0.213c0,0.142-0.142,0.213-0.426,0.213c-0.498,0.071-1.208,0.213-1.35,0.568
		c-0.355,0.924,1.35,1.42,3.196,1.42c0.426,0,0.924,0,1.493-0.07h0.141c0.497-1.137,0.853-2.345,0.853-3.694
		c0-0.995-0.143-1.989-0.497-2.842H59.156c-0.285,0.923-0.498,1.847-0.498,2.912c0,1.279,0.284,2.416,0.781,3.48H59.511z"/>
	<path fill="#53B7E8" d="M74.925,32.378c-1.349-2.913-4.262-4.901-7.743-4.901c-3.409,0-6.322,1.989-7.743,4.901H74.925z"/>
	<path fill="#1B868D" d="M69.527,38.274c0.142-0.355,0-0.355-0.213-0.284c-0.355,0.143-0.498,0.213-0.924,0.355
		c-0.923,0.426-2.131,0.924-3.835,1.279c-1.279,0.283-2.628,0.426-3.979,0.426c-0.283,0-0.568,0-0.852,0
		c0.071,0.142,0.142,0.284,0.212,0.425c0.213,0,0.427,0,0.639,0c1.421,0,2.771-0.141,4.121-0.425
		c1.776-0.426,2.983-0.852,3.978-1.35c0.284-0.142,0.284,0.142,0.426,0.285c0.142,0.142,0.213,0.285,0.213,0.285
		c0.995,1.065,2.272,1.419,4.19,1.419c0.284,0,0.498,0,0.782,0c0.07-0.143,0.142-0.285,0.284-0.425c-0.355,0-0.711,0.07-1.066,0.07
		C70.664,40.403,69.314,39.056,69.527,38.274"/>
	<path fill="#1B868D" d="M68.816,39.339c0,0-0.142-0.213-0.426-0.07c-0.923,0.355-1.988,0.781-3.48,1.134
		c-1.35,0.285-2.771,0.498-4.262,0.498c-0.142,0-0.212,0-0.354,0c1.563,2.202,4.12,3.624,6.961,3.624
		c2.771,0,5.257-1.351,6.819-3.41c-0.142,0-0.354,0-0.497,0C71.374,41.115,69.812,40.546,68.816,39.339"/>
	<path fill="#4BA6DD" d="M59.796,31.739h14.775c-0.071-0.143-0.142-0.284-0.213-0.355H60.079
		C60.008,31.455,59.867,31.596,59.796,31.739"/>
	<path fill="#4BA6DD" d="M71.019,28.329h-7.601c-0.143,0.071-0.212,0.142-0.355,0.213h8.311C71.232,28.471,71.09,28.4,71.019,28.329
		"/>
	<path fill="#4BA6DD" d="M61.002,30.104h12.36c-0.071-0.071-0.212-0.213-0.284-0.284H61.287
		C61.216,29.962,61.074,30.034,61.002,30.104"/>
	<polygon fill="#1B868D" points="85.937,30.744 81.603,30.744 81.603,28.755 92.543,28.755 92.543,30.744 88.209,30.744 
		88.209,43.246 85.937,43.246 	"/>
	<path fill="#1B868D" d="M110.585,43.246h-2.699l-2.487-3.552c-0.354,0.071-0.709,0.071-1.065,0.071h-1.42v3.48h-2.345V28.755h3.694
		c3.978,0,6.18,2.202,6.18,5.541c0,2.273-0.994,3.979-2.912,4.831L110.585,43.246z M104.264,37.848c2.771,0,3.907-1.35,3.907-3.552
		s-1.137-3.551-3.907-3.551h-1.35v7.104H104.264z"/>
	<rect x="119.181" y="28.755" fill="#1B868D" width="2.273" height="14.491"/>
	<polygon fill="#1B868D" points="133.886,30.744 129.552,30.744 129.552,28.755 140.492,28.755 140.492,30.744 136.159,30.744 
		136.159,43.246 133.886,43.246 	"/>
	<polygon fill="#1B868D" points="147.525,28.755 149.939,28.755 154.061,38.487 158.109,28.755 160.382,28.755 154.132,43.46 
		153.989,43.46 	"/>
	<path fill="#1B868D" d="M167.06,43.246h-2.273l6.393-14.846h0.143l6.393,14.846h-2.558l-0.852-2.06h-6.464L167.06,43.246z
		 M171.108,33.443l-2.416,5.754h4.76C173.523,39.198,171.108,33.443,171.108,33.443"/>
	<polygon fill="#1B868D" points="185.6,28.471 185.742,28.471 192.773,36.64 199.807,28.471 199.948,28.471 199.948,43.246 
		197.746,43.246 197.746,33.87 192.773,39.766 192.701,39.766 187.802,33.87 187.802,43.246 185.6,43.246 	"/>
	<path fill="#1B868D" d="M144.114,46.798L144.114,46.798l1.846,2.131l1.777-2.131h0.071v3.837h-0.567v-1.988
		c0-0.214,0-0.569,0-0.569s-0.214,0.284-0.356,0.427l-0.925,1.135h-0.069l-0.923-1.135c-0.143-0.143-0.355-0.427-0.355-0.427
		s0,0.355,0,0.569v1.988h-0.569v-3.837H144.114z"/>
	<path fill="#1B868D" d="M150.081,46.798L150.081,46.798l1.706,3.837h-0.641l-0.213-0.568h-1.704l-0.213,0.568h-0.569
		L150.081,46.798z M150.791,49.567l-0.496-1.206c-0.071-0.213-0.214-0.569-0.214-0.569s-0.07,0.356-0.213,0.569l-0.496,1.206
		H150.791z"/>
	<path fill="#1B868D" d="M155.054,50.635h-0.71l-0.71-0.996c-0.071,0-0.214,0-0.285,0h-0.355v0.996h-0.567v-3.766h0.923
		c1.066,0,1.633,0.567,1.633,1.422c0,0.567-0.282,0.992-0.778,1.206L155.054,50.635z M153.349,49.143
		c0.783,0,1.066-0.355,1.066-0.852c0-0.569-0.283-0.926-1.066-0.926h-0.355v1.777H153.349z"/>
	<rect x="155.765" y="46.869" fill="#1B868D" width="0.569" height="3.766"/>
	<path fill="#1B868D" d="M158.18,48.433c-0.142-0.142-0.355-0.427-0.355-0.427s0.071,0.285,0.071,0.569v2.06h-0.569v-3.837h0.071
		l2.06,2.202c0.143,0.143,0.355,0.425,0.355,0.425s-0.07-0.354-0.07-0.566v-2.061h0.568v3.837h-0.07L158.18,48.433z"/>
	<polygon fill="#1B868D" points="161.234,46.869 163.649,46.869 163.649,47.365 161.802,47.365 161.802,48.787 163.437,48.787 
		163.437,49.354 161.802,49.354 161.802,50.066 163.719,50.066 163.719,50.635 161.234,50.635 	"/>
	<path fill="#1B868D" d="M165.78,46.869h1.066c1.207,0,1.988,0.781,1.988,1.918s-0.781,1.919-1.988,1.919h-1.066V46.869z
		 M166.774,50.066c0.995,0,1.42-0.569,1.42-1.351s-0.425-1.351-1.42-1.351h-0.427v2.771h0.427V50.066z"/>
	<path fill="#1B868D" d="M172.174,50.635h-0.639l-0.712-0.996c-0.071,0-0.214,0-0.284,0h-0.354v0.996h-0.567v-3.766h0.922
		c1.066,0,1.635,0.567,1.635,1.422c0,0.567-0.283,0.992-0.781,1.206L172.174,50.635z M170.468,49.143
		c0.783,0,1.067-0.355,1.067-0.852c0-0.569-0.284-0.926-1.067-0.926h-0.354v1.777H170.468z"/>
	<rect x="172.954" y="46.869" fill="#1B868D" width="0.569" height="3.766"/>
	<path fill="#1B868D" d="M174.164,46.869h0.637l0.854,2.06c0.143,0.285,0.214,0.639,0.214,0.639s0.071-0.425,0.213-0.639l0.853-2.06
		h0.567l-1.633,3.837h-0.071L174.164,46.869z"/>
	<polygon fill="#1B868D" points="178.07,46.869 180.485,46.869 180.485,47.365 178.709,47.365 178.709,48.787 180.272,48.787 
		180.272,49.354 178.709,49.354 178.709,50.066 180.557,50.066 180.557,50.635 178.07,50.635 	"/>
	<path fill="#1B868D" d="M181.408,50.635c-0.142-0.071-0.213-0.142-0.213-0.355c0-0.213,0.143-0.355,0.354-0.355
		c0.214,0,0.356,0.143,0.356,0.355c0,0.143-0.071,0.214-0.143,0.355l-0.354,0.639h-0.284L181.408,50.635z"/>
	<path fill="#1B868D" d="M184.747,48.433l1.206-1.563h0.641l-1.348,1.777l1.49,1.988h-0.712l-1.135-1.563l-0.427,0.496v1.067h-0.569
		v-3.766h0.569v1.563c0,0.143,0,0.426-0.071,0.567C184.534,48.787,184.604,48.575,184.747,48.433"/>
	<path fill="#1B868D" d="M186.879,48.716c0-1.137,0.852-1.918,1.917-1.918s1.917,0.781,1.917,1.918s-0.852,1.919-1.917,1.919
		S186.879,49.853,186.879,48.716 M190.217,48.716c0-0.781-0.567-1.421-1.351-1.421c-0.78,0-1.348,0.64-1.348,1.421
		s0.567,1.421,1.348,1.421C189.649,50.137,190.217,49.497,190.217,48.716"/>
	<path fill="#1B868D" d="M191.354,48.716c0-1.137,0.852-1.918,1.917-1.918c0.712,0,1.208,0.283,1.491,0.781l-0.425,0.355
		c-0.212-0.355-0.567-0.569-1.066-0.569c-0.78,0-1.348,0.569-1.348,1.422c0,0.78,0.567,1.421,1.348,1.421
		c0.499,0,0.854-0.214,1.137-0.569l0.426,0.285c-0.354,0.498-0.851,0.782-1.563,0.782C192.205,50.635,191.354,49.853,191.354,48.716
		"/>
	<polygon fill="#1B868D" points="195.544,46.869 196.113,46.869 196.113,48.858 197.889,48.858 197.889,46.869 198.529,46.869 
		198.529,50.635 197.889,50.635 197.889,49.354 196.113,49.354 196.113,50.635 195.544,50.635 	"/>
	<rect x="199.45" y="46.869" fill="#1B868D" width="0.569" height="3.766"/>
</g>
</svg>
